# xmcd
#
# Track frame offsets: 
#        150
#        15128
#        27731
#        41378
#        58744
#        71986
#        87032
#        99971
#        112142
#        123642
#        136087
#        151123
#        165107
#        184557
#        203198
#
# Disc length: 2993 seconds
#
# Revision: 1
# Processed by: cddbd v1.5.2PL0 Copyright (c) Steve Scherf et al.
# Submitted via: ExactAudioCopy v0.90b4
#
DISCID=ba0baf0f
DTITLE=Daniël Lohues - D
DYEAR=2014
DGENRE=Folk
TTITLE0=Niks Is Meer Weerd As Vandaage
TTITLE1=Weet Da'k Wat Vergeten Ben, Mar Ben Vergeten Wat
TTITLE2=Op 't Platteland
TTITLE3=Achter 't Huus
TTITLE4=Joezölf
TTITLE5=Zunde Zunde Zunde
TTITLE6=Terecht Bij Joe
TTITLE7=Mis Mien Engel
TTITLE8=Wat Ze Zee
TTITLE9=Zo Schier, Zo Mooi, Zo Lief
TTITLE10=Jij Veurbij
TTITLE11=Niks Is Veur Niks
TTITLE12=Kom Maar Hier
TTITLE13=Da's Mien Kameraod
TTITLE14=Met Joe Weet Ik Altied Hoe En Wat
EXTD=
EXTT0=
EXTT1=
EXTT2=
EXTT3=
EXTT4=
EXTT5=
EXTT6=
EXTT7=
EXTT8=
EXTT9=
EXTT10=
EXTT11=
EXTT12=
EXTT13=
EXTT14=
PLAYORDER=
